<mxfile host="app.diagrams.net" modified="2024-05-24T10:46:37.342Z" agent="Mozilla/5.0 (X11; Linux x86_64) AppleWebKit/537.36 (KHTML, like Gecko) Chrome/125.0.0.0 Safari/537.36" etag="BniUkI7A51sBryiCbhd1" version="24.4.7" type="device">
  <diagram name="Seite-1" id="fj3HExzc0poEgquorZxH">
    <mxGraphModel dx="691" dy="382" grid="1" gridSize="10" guides="1" tooltips="1" connect="1" arrows="1" fold="1" page="1" pageScale="1" pageWidth="827" pageHeight="1169" math="0" shadow="0">
      <root>
        <mxCell id="0" />
        <mxCell id="1" parent="0" />
        <mxCell id="nSjr75S0ceOl_vQVc9rQ-38" style="edgeStyle=orthogonalEdgeStyle;rounded=0;orthogonalLoop=1;jettySize=auto;html=1;entryX=0;entryY=0.5;entryDx=0;entryDy=0;sketch=1;curveFitting=1;jiggle=2;" edge="1" parent="1" source="nSjr75S0ceOl_vQVc9rQ-1" target="nSjr75S0ceOl_vQVc9rQ-22">
          <mxGeometry relative="1" as="geometry" />
        </mxCell>
        <mxCell id="nSjr75S0ceOl_vQVc9rQ-1" value="State Transition Queue" style="aspect=fixed;pointerEvents=1;shadow=0;dashed=0;html=1;strokeColor=none;labelPosition=center;verticalLabelPosition=top;verticalAlign=bottom;align=center;fillColor=#000000;shape=mxgraph.azure.queue_generic;fontSize=10;fontFamily=Just Another Hand;fontSource=https%3A%2F%2Ffonts.googleapis.com%2Fcss%3Ffamily%3DJust%2BAnother%2BHand;" vertex="1" parent="1">
          <mxGeometry x="170" y="183.75" width="50" height="15" as="geometry" />
        </mxCell>
        <mxCell id="nSjr75S0ceOl_vQVc9rQ-22" value="State Transition" style="rounded=1;whiteSpace=wrap;html=1;fontSize=10;fontFamily=Just Another Hand;fontSource=https%3A%2F%2Ffonts.googleapis.com%2Fcss%3Ffamily%3DJust%2BAnother%2BHand;sketch=1;curveFitting=1;jiggle=2;" vertex="1" parent="1">
          <mxGeometry x="240" y="180" width="50" height="22.5" as="geometry" />
        </mxCell>
        <mxCell id="nSjr75S0ceOl_vQVc9rQ-40" style="edgeStyle=orthogonalEdgeStyle;rounded=0;orthogonalLoop=1;jettySize=auto;html=1;entryX=0;entryY=0.5;entryDx=0;entryDy=0;" edge="1" parent="1" source="nSjr75S0ceOl_vQVc9rQ-2" target="nSjr75S0ceOl_vQVc9rQ-5">
          <mxGeometry relative="1" as="geometry" />
        </mxCell>
        <mxCell id="nSjr75S0ceOl_vQVc9rQ-2" value="Queue 1" style="aspect=fixed;pointerEvents=1;shadow=0;dashed=0;html=1;strokeColor=none;labelPosition=center;verticalLabelPosition=top;verticalAlign=middle;align=center;fillColor=#000000;shape=mxgraph.azure.queue_generic;fontSize=10;fontFamily=Just Another Hand;fontSource=https%3A%2F%2Ffonts.googleapis.com%2Fcss%3Ffamily%3DJust%2BAnother%2BHand;horizontal=1;" vertex="1" parent="1">
          <mxGeometry x="310" y="183.75" width="50" height="15" as="geometry" />
        </mxCell>
        <mxCell id="nSjr75S0ceOl_vQVc9rQ-45" style="edgeStyle=orthogonalEdgeStyle;rounded=0;orthogonalLoop=1;jettySize=auto;html=1;sketch=1;curveFitting=1;jiggle=2;" edge="1" parent="1" source="nSjr75S0ceOl_vQVc9rQ-4" target="nSjr75S0ceOl_vQVc9rQ-6">
          <mxGeometry relative="1" as="geometry" />
        </mxCell>
        <mxCell id="nSjr75S0ceOl_vQVc9rQ-4" value="Queue 2" style="aspect=fixed;pointerEvents=1;shadow=0;dashed=0;html=1;strokeColor=none;labelPosition=center;verticalLabelPosition=top;verticalAlign=middle;align=center;fillColor=#000000;shape=mxgraph.azure.queue_generic;fontSize=10;fontFamily=Just Another Hand;fontSource=https%3A%2F%2Ffonts.googleapis.com%2Fcss%3Ffamily%3DJust%2BAnother%2BHand;" vertex="1" parent="1">
          <mxGeometry x="310" y="241.25" width="50" height="15" as="geometry" />
        </mxCell>
        <mxCell id="nSjr75S0ceOl_vQVc9rQ-5" value="Use Case 1" style="rounded=1;whiteSpace=wrap;html=1;fontSize=10;fontFamily=Just Another Hand;fontSource=https%3A%2F%2Ffonts.googleapis.com%2Fcss%3Ffamily%3DJust%2BAnother%2BHand;sketch=1;curveFitting=1;jiggle=2;" vertex="1" parent="1">
          <mxGeometry x="380" y="180" width="50" height="22.5" as="geometry" />
        </mxCell>
        <mxCell id="nSjr75S0ceOl_vQVc9rQ-46" style="edgeStyle=orthogonalEdgeStyle;rounded=0;orthogonalLoop=1;jettySize=auto;html=1;sketch=1;curveFitting=1;jiggle=2;entryX=0;entryY=0.5;entryDx=0;entryDy=0;entryPerimeter=0;" edge="1" parent="1" target="nSjr75S0ceOl_vQVc9rQ-57">
          <mxGeometry relative="1" as="geometry">
            <mxPoint x="170" y="300" as="targetPoint" />
            <mxPoint x="250" y="280" as="sourcePoint" />
            <Array as="points">
              <mxPoint x="150" y="280" />
              <mxPoint x="150" y="311" />
            </Array>
          </mxGeometry>
        </mxCell>
        <mxCell id="nSjr75S0ceOl_vQVc9rQ-53" style="edgeStyle=orthogonalEdgeStyle;rounded=0;orthogonalLoop=1;jettySize=auto;html=1;sketch=1;curveFitting=1;jiggle=2;" edge="1" parent="1" source="nSjr75S0ceOl_vQVc9rQ-6">
          <mxGeometry relative="1" as="geometry">
            <mxPoint x="300" y="280" as="targetPoint" />
            <Array as="points">
              <mxPoint x="405" y="280" />
            </Array>
          </mxGeometry>
        </mxCell>
        <mxCell id="nSjr75S0ceOl_vQVc9rQ-6" value="Use Case 2" style="rounded=1;whiteSpace=wrap;html=1;fontSize=10;fontFamily=Just Another Hand;fontSource=https%3A%2F%2Ffonts.googleapis.com%2Fcss%3Ffamily%3DJust%2BAnother%2BHand;sketch=1;curveFitting=1;jiggle=2;" vertex="1" parent="1">
          <mxGeometry x="380" y="237.5" width="50" height="22.5" as="geometry" />
        </mxCell>
        <mxCell id="nSjr75S0ceOl_vQVc9rQ-34" value="State Transition Queue" style="aspect=fixed;pointerEvents=1;shadow=0;dashed=0;html=1;strokeColor=none;labelPosition=center;verticalLabelPosition=top;verticalAlign=bottom;align=center;fillColor=#000000;shape=mxgraph.azure.queue_generic;fontSize=10;fontFamily=Just Another Hand;fontSource=https%3A%2F%2Ffonts.googleapis.com%2Fcss%3Ffamily%3DJust%2BAnother%2BHand;" vertex="1" parent="1">
          <mxGeometry x="170" y="241.25" width="50" height="15" as="geometry" />
        </mxCell>
        <mxCell id="nSjr75S0ceOl_vQVc9rQ-35" value="State Transition" style="rounded=1;whiteSpace=wrap;html=1;fontSize=10;fontFamily=Just Another Hand;fontSource=https%3A%2F%2Ffonts.googleapis.com%2Fcss%3Ffamily%3DJust%2BAnother%2BHand;sketch=1;curveFitting=1;jiggle=2;" vertex="1" parent="1">
          <mxGeometry x="240" y="237.5" width="50" height="22.5" as="geometry" />
        </mxCell>
        <mxCell id="nSjr75S0ceOl_vQVc9rQ-36" value="Application API" style="rounded=1;whiteSpace=wrap;html=1;sketch=1;curveFitting=1;jiggle=2;fontFamily=Just Another Hand;fontSource=https%3A%2F%2Ffonts.googleapis.com%2Fcss%3Ffamily%3DJust%2BAnother%2BHand;" vertex="1" parent="1">
          <mxGeometry x="90" y="180.63" width="50" height="21.25" as="geometry" />
        </mxCell>
        <mxCell id="nSjr75S0ceOl_vQVc9rQ-37" style="edgeStyle=orthogonalEdgeStyle;rounded=0;orthogonalLoop=1;jettySize=auto;html=1;entryX=0;entryY=0.5;entryDx=0;entryDy=0;entryPerimeter=0;sketch=1;curveFitting=1;jiggle=2;" edge="1" parent="1" source="nSjr75S0ceOl_vQVc9rQ-36" target="nSjr75S0ceOl_vQVc9rQ-1">
          <mxGeometry relative="1" as="geometry" />
        </mxCell>
        <mxCell id="nSjr75S0ceOl_vQVc9rQ-39" style="edgeStyle=orthogonalEdgeStyle;rounded=0;orthogonalLoop=1;jettySize=auto;html=1;entryX=0;entryY=0.5;entryDx=0;entryDy=0;entryPerimeter=0;sketch=1;curveFitting=1;jiggle=2;" edge="1" parent="1" source="nSjr75S0ceOl_vQVc9rQ-22" target="nSjr75S0ceOl_vQVc9rQ-2">
          <mxGeometry relative="1" as="geometry" />
        </mxCell>
        <mxCell id="nSjr75S0ceOl_vQVc9rQ-41" style="edgeStyle=orthogonalEdgeStyle;rounded=0;orthogonalLoop=1;jettySize=auto;html=1;entryX=0;entryY=0.5;entryDx=0;entryDy=0;entryPerimeter=0;sketch=1;curveFitting=1;jiggle=2;" edge="1" parent="1" source="nSjr75S0ceOl_vQVc9rQ-5" target="nSjr75S0ceOl_vQVc9rQ-34">
          <mxGeometry relative="1" as="geometry">
            <Array as="points">
              <mxPoint x="405" y="220" />
              <mxPoint x="150" y="220" />
              <mxPoint x="150" y="249" />
            </Array>
          </mxGeometry>
        </mxCell>
        <mxCell id="nSjr75S0ceOl_vQVc9rQ-44" style="edgeStyle=orthogonalEdgeStyle;rounded=0;orthogonalLoop=1;jettySize=auto;html=1;entryX=0;entryY=0.5;entryDx=0;entryDy=0;entryPerimeter=0;sketch=1;curveFitting=1;jiggle=2;" edge="1" parent="1" source="nSjr75S0ceOl_vQVc9rQ-35" target="nSjr75S0ceOl_vQVc9rQ-4">
          <mxGeometry relative="1" as="geometry" />
        </mxCell>
        <mxCell id="nSjr75S0ceOl_vQVc9rQ-47" value="" style="group;fontSize=10;fontFamily=Just Another Hand;fontSource=https%3A%2F%2Ffonts.googleapis.com%2Fcss%3Ffamily%3DJust%2BAnother%2BHand;rotation=90;" vertex="1" connectable="0" parent="1">
          <mxGeometry x="271" y="268" width="5" height="25" as="geometry" />
        </mxCell>
        <mxCell id="nSjr75S0ceOl_vQVc9rQ-48" value="" style="ellipse;whiteSpace=wrap;html=1;aspect=fixed;fillColor=#000000;fontSize=10;fontFamily=Just Another Hand;fontSource=https%3A%2F%2Ffonts.googleapis.com%2Fcss%3Ffamily%3DJust%2BAnother%2BHand;rotation=90;" vertex="1" parent="nSjr75S0ceOl_vQVc9rQ-47">
          <mxGeometry x="10" y="10" width="5" height="5" as="geometry" />
        </mxCell>
        <mxCell id="nSjr75S0ceOl_vQVc9rQ-49" value="" style="ellipse;whiteSpace=wrap;html=1;aspect=fixed;fillColor=#000000;fontSize=10;fontFamily=Just Another Hand;fontSource=https%3A%2F%2Ffonts.googleapis.com%2Fcss%3Ffamily%3DJust%2BAnother%2BHand;rotation=90;" vertex="1" parent="nSjr75S0ceOl_vQVc9rQ-47">
          <mxGeometry y="10" width="5" height="5" as="geometry" />
        </mxCell>
        <mxCell id="nSjr75S0ceOl_vQVc9rQ-50" value="" style="ellipse;whiteSpace=wrap;html=1;aspect=fixed;fillColor=#000000;fontSize=10;fontFamily=Just Another Hand;fontSource=https%3A%2F%2Ffonts.googleapis.com%2Fcss%3Ffamily%3DJust%2BAnother%2BHand;rotation=90;" vertex="1" parent="nSjr75S0ceOl_vQVc9rQ-47">
          <mxGeometry x="-10" y="10" width="5" height="5" as="geometry" />
        </mxCell>
        <mxCell id="nSjr75S0ceOl_vQVc9rQ-56" style="edgeStyle=orthogonalEdgeStyle;rounded=0;orthogonalLoop=1;jettySize=auto;html=1;entryX=0;entryY=0.5;entryDx=0;entryDy=0;sketch=1;curveFitting=1;jiggle=2;" edge="1" parent="1" source="nSjr75S0ceOl_vQVc9rQ-57" target="nSjr75S0ceOl_vQVc9rQ-58">
          <mxGeometry relative="1" as="geometry" />
        </mxCell>
        <mxCell id="nSjr75S0ceOl_vQVc9rQ-57" value="State Transition Queue" style="aspect=fixed;pointerEvents=1;shadow=0;dashed=0;html=1;strokeColor=none;labelPosition=center;verticalLabelPosition=top;verticalAlign=bottom;align=center;fillColor=#000000;shape=mxgraph.azure.queue_generic;fontSize=10;fontFamily=Just Another Hand;fontSource=https%3A%2F%2Ffonts.googleapis.com%2Fcss%3Ffamily%3DJust%2BAnother%2BHand;" vertex="1" parent="1">
          <mxGeometry x="170" y="303.75" width="50" height="15" as="geometry" />
        </mxCell>
        <mxCell id="nSjr75S0ceOl_vQVc9rQ-58" value="State Transition" style="rounded=1;whiteSpace=wrap;html=1;fontSize=10;fontFamily=Just Another Hand;fontSource=https%3A%2F%2Ffonts.googleapis.com%2Fcss%3Ffamily%3DJust%2BAnother%2BHand;sketch=1;curveFitting=1;jiggle=2;" vertex="1" parent="1">
          <mxGeometry x="240" y="300" width="50" height="22.5" as="geometry" />
        </mxCell>
        <mxCell id="nSjr75S0ceOl_vQVc9rQ-59" style="edgeStyle=orthogonalEdgeStyle;rounded=0;orthogonalLoop=1;jettySize=auto;html=1;entryX=-0.001;entryY=0.535;entryDx=0;entryDy=0;entryPerimeter=0;sketch=1;curveFitting=1;jiggle=2;" edge="1" parent="1" source="nSjr75S0ceOl_vQVc9rQ-34" target="nSjr75S0ceOl_vQVc9rQ-35">
          <mxGeometry relative="1" as="geometry" />
        </mxCell>
      </root>
    </mxGraphModel>
  </diagram>
</mxfile>
